<svg width="26" height="30" viewBox="0 0 26 30" fill="none" xmlns="http://www.w3.org/2000/svg">
<path d="M13.007 0.833496C16.8036 0.833496 19.9249 3.81687 20.0833 7.59712H20.0463C20.0508 7.70701 20.0296 7.81643 19.9846 7.91683H20.2058C21.9299 7.91683 23.7353 9.1118 24.4592 11.9966L24.5378 12.3369L25.6271 21.1127C26.411 26.71 23.3487 29.0638 19.1713 29.1635L18.8912 29.1668H7.14708C2.90168 29.1668 -0.369729 27.6198 0.349565 21.4935L0.398615 21.1127L1.50041 12.3369C2.0437 9.23034 3.86761 8.00501 5.625 7.92145L5.81993 7.91683H5.93067C5.912 7.81107 5.912 7.70288 5.93067 7.59712C6.08911 3.81687 9.21041 0.833496 13.007 0.833496ZM8.88741 12.6333C8.19593 12.6333 7.63538 13.2103 7.63538 13.922C7.63538 14.6337 8.19593 15.2106 8.88741 15.2106C9.57889 15.2106 10.1394 14.6337 10.1394 13.922L10.1297 13.7603C10.0524 13.1249 9.5257 12.6333 8.88741 12.6333ZM17.0882 12.6333C16.3968 12.6333 15.8362 13.2103 15.8362 13.922C15.8362 14.6337 16.3968 15.2106 17.0882 15.2106C17.7797 15.2106 18.3403 14.6337 18.3403 13.922C18.3403 13.2103 17.7797 12.6333 17.0882 12.6333ZM12.9515 2.67854C10.2257 2.67854 8.01594 4.88066 8.01594 7.59712C8.03462 7.70288 8.03462 7.81107 8.01594 7.91683H17.9487C17.9093 7.81475 17.8884 7.70649 17.887 7.59712C17.887 4.88066 15.6773 2.67854 12.9515 2.67854Z" fill="white"/>
</svg>