<?xml version="1.0" encoding="UTF-8"?>
<svg xmlns="http://www.w3.org/2000/svg" xmlns:xlink="http://www.w3.org/1999/xlink" width="18px" height="18px" viewBox="0 0 18 18" version="1.1">
<g id="surface1">
<path style=" stroke:none;fill-rule:nonzero;fill:rgb(100%,100%,100%);fill-opacity:1;" d="M 8.277344 0.710938 C 8.277344 0.617188 8.296875 0.523438 8.332031 0.441406 C 8.371094 0.351562 8.421875 0.273438 8.488281 0.207031 C 8.617188 0.078125 8.792969 0 8.992188 0 C 9.085938 0 9.179688 0.0195312 9.265625 0.0546875 C 9.265625 0.0546875 9.265625 0.0546875 9.269531 0.0585938 C 9.355469 0.09375 9.429688 0.144531 9.496094 0.207031 C 9.625 0.335938 9.703125 0.515625 9.703125 0.710938 C 9.703125 0.71875 9.703125 0.722656 9.703125 0.726562 L 9.703125 8.28125 L 17.257812 8.28125 C 17.261719 8.277344 17.265625 8.277344 17.269531 8.277344 C 17.367188 8.277344 17.457031 8.296875 17.542969 8.332031 C 17.542969 8.332031 17.546875 8.335938 17.546875 8.335938 C 17.632812 8.371094 17.710938 8.425781 17.773438 8.488281 C 17.902344 8.617188 17.984375 8.792969 17.984375 8.992188 C 17.984375 9.085938 17.964844 9.179688 17.929688 9.261719 C 17.890625 9.351562 17.839844 9.429688 17.773438 9.496094 C 17.707031 9.558594 17.628906 9.613281 17.542969 9.648438 C 17.457031 9.683594 17.367188 9.703125 17.269531 9.703125 C 17.265625 9.703125 17.261719 9.703125 17.257812 9.703125 L 9.703125 9.703125 L 9.703125 17.257812 C 9.703125 17.261719 9.703125 17.265625 9.703125 17.269531 C 9.703125 17.367188 9.683594 17.457031 9.648438 17.542969 C 9.648438 17.542969 9.648438 17.546875 9.648438 17.546875 C 9.609375 17.632812 9.558594 17.710938 9.496094 17.773438 C 9.367188 17.902344 9.1875 17.984375 8.992188 17.984375 C 8.894531 17.984375 8.804688 17.964844 8.71875 17.929688 C 8.632812 17.890625 8.554688 17.839844 8.488281 17.773438 C 8.421875 17.707031 8.371094 17.628906 8.332031 17.542969 C 8.296875 17.457031 8.277344 17.367188 8.277344 17.269531 C 8.277344 17.265625 8.277344 17.261719 8.28125 17.257812 L 8.28125 9.703125 L 0.726562 9.703125 C 0.722656 9.703125 0.71875 9.703125 0.710938 9.703125 C 0.617188 9.703125 0.523438 9.683594 0.441406 9.648438 C 0.351562 9.613281 0.273438 9.558594 0.207031 9.496094 C 0.144531 9.429688 0.0898438 9.351562 0.0546875 9.265625 C 0.0195312 9.179688 0 9.085938 0 8.992188 C 0 8.894531 0.0195312 8.804688 0.0546875 8.71875 C 0.0898438 8.632812 0.144531 8.554688 0.207031 8.488281 C 0.335938 8.359375 0.515625 8.277344 0.710938 8.277344 C 0.71875 8.277344 0.722656 8.277344 0.726562 8.28125 L 8.28125 8.28125 L 8.28125 0.726562 C 8.277344 0.722656 8.277344 0.714844 8.277344 0.710938 Z M 8.277344 0.710938 "/>
</g>
</svg>
